<?xml version="1.0" encoding="utf-8"?>
<svg viewBox="12 111 480 130" xmlns="http://www.w3.org/2000/svg">
  <defs>
    <linearGradient id="gradient-0" gradientUnits="userSpaceOnUse" x1="427.604" y1="144.731" x2="427.604" y2="207.533" gradientTransform="matrix(0.772842, 0.652528, -0.888062, 0.962642, 252.821141, -273.268085)">
      <stop offset="0" style="stop-color: rgba(176, 177, 173, 1)"/>
      <stop offset="1" style="stop-color: rgba(125, 127, 121, 1)"/>
    </linearGradient>
    <linearGradient id="gradient-3" gradientUnits="userSpaceOnUse" x1="427.343" y1="144.769" x2="427.343" y2="207.495" gradientTransform="matrix(0.740865, 0.671654, -0.889804, 0.981492, 267.766672, -284.584971)">
      <stop offset="0" style="stop-color: rgba(176, 177, 173, 1)"/>
      <stop offset="1" style="stop-color: rgba(125, 127, 121, 1)"/>
    </linearGradient>
    <linearGradient id="gradient-4" gradientUnits="userSpaceOnUse" x1="472.149" y1="150.231" x2="472.149" y2="202.025" gradientTransform="matrix(0.716616, 0.697468, -1.128313, 1.159292, 287.493631, -358.510299)">
      <stop offset="0" style="stop-color: rgba(176, 177, 173, 1)"/>
      <stop offset="1" style="stop-color: rgba(125, 127, 121, 1)"/>
    </linearGradient>
    <linearGradient id="gradient-6" gradientUnits="userSpaceOnUse" x1="426.199" y1="139.487" x2="426.199" y2="144.755" gradientTransform="matrix(-0.71162, 0.702539, -10.245157, -10.377796, 2183.915285, 1340.926913)">
      <stop offset="0" style="stop-color: rgba(167, 168, 164, 1)"/>
      <stop offset="1" style="stop-color: rgba(116, 118, 112, 1)"/>
    </linearGradient>
  </defs>
  <path d="M 48.527 175.231 C 48.175 181.454 50.922 212.677 43.297 220.521 C 25.472 238.858 21.477 199.888 21.477 199.888 L 21.477 200.836" style="fill: none; stroke-linecap: round; stroke-linejoin: round; stroke: rgb(76, 47, 4); stroke-width: 7;"/>
  <path d="M 72.775 174.32 C 39.576 174.909 71.248 216.701 80.007 208.101 C 81.864 206.278 86.487 177.563 83.871 176.806 C 81.155 176.019 78.78 175.268 78.78 175.268 L 72.775 174.32 Z" style="fill: none; stroke-linecap: round; stroke-linejoin: round; stroke: rgb(76, 47, 4); stroke-width: 7;"/>
  <path d="M 84.471 177.883 C 84.471 178.831 87.288 206.428 87.273 211.733 L 87.074 211.733" style="fill: none; stroke-linecap: round; stroke-linejoin: round; stroke: rgb(76, 47, 4); stroke-width: 7;"/>
  <path d="M 92.566 177.754 C 92.566 184.048 94.119 187.218 95.464 192.928 C 103.773 228.198 101.737 203.593 107.257 195.021 C 107.877 194.059 115.751 178.702 115.751 178.702" style="fill: none; stroke-linecap: round; stroke-linejoin: round; stroke: rgb(76, 47, 4); stroke-width: 7;"/>
  <path d="M 145.699 175.857 C 104.165 176.754 130.632 220.997 142.801 209.05 C 142.93 208.922 147.531 194.312 147.128 188.024 C 147.068 187.086 146.673 176.968 146.673 176.968" style="fill: none; stroke-linecap: round; stroke-linejoin: round; stroke: rgb(76, 47, 4); stroke-width: 7;"/>
  <path d="M 146.961 177.062 C 146.67 173.92 152.22 205.491 152.462 208.101 L 153.062 210.066" style="fill: none; stroke-linecap: round; stroke-linejoin: round; stroke: rgb(76, 47, 4); stroke-width: 7;"/>
  <path d="M 199.452 145.109 C 188.652 145.109 152.301 158.53 167.572 175.931 C 171.307 180.188 218.342 198.439 210.079 207.854 C 205.373 213.216 168.538 211.577 168.538 206.753" style="fill: none; stroke-linecap: round; stroke-linejoin: round; stroke: rgb(76, 47, 4); stroke-width: 7;"/>
  <path d="M 246.17 176.806 C 241.279 176.806 234.351 175.175 229.773 180.864 C 206.003 210.399 252.131 204.248 252.131 204.248" style="fill: none; stroke-linecap: round; stroke-linejoin: round; stroke: rgb(76, 47, 4); stroke-width: 7;"/>
  <path d="M 282.88 182.496 C 282.88 182.496 281.008 168.783 268.493 173.209 C 263.017 175.146 262.593 198.379 262.593 204.308 C 262.593 203.36 262.959 183.134 262.959 173.013 C 263.925 173.013 263.324 168.827 263.324 168.827" style="fill: none; stroke-linecap: round; stroke-linejoin: round; stroke: rgb(76, 47, 4); stroke-width: 7;"/>
  <path d="M 296.405 171.116 C 296.405 183.129 296.405 195.14 296.405 207.153 C 296.405 207.153 298.572 206.043 298.572 206.043" style="fill: none; stroke-linecap: round; stroke-linejoin: round; stroke: rgb(76, 47, 4); stroke-width: 7;"/>
  <path d="M 296.371 144.699 Z" style="fill: none; stroke-width: 5; stroke: rgb(68, 42, 2);"/>
  <path d="M 297.371 147.407 C 296.405 148.01 294.473 151.2 294.473 151.2 Z" style="fill: none; stroke-linecap: round; stroke-linejoin: round; stroke: rgb(76, 47, 4); stroke-width: 7;"/>
  <path d="M 315.457 201.006 C 315.457 201.006 331.917 198.614 335.301 194.166 C 345.955 180.162 314.421 175.669 314.421 175.669 C 314.421 176.475 314.221 188.235 314.221 188.997 C 314.221 203.776 313.255 216.096 313.255 230.102" style="fill: none; stroke-linecap: round; stroke-linejoin: round; stroke: rgb(76, 47, 4); stroke-width: 7;"/>
  <path d="M 356.301 156.891 C 356.301 156.891 351.025 203.871 354.369 207.153 C 363.04 215.666 368.86 210.386 368.86 199.567" style="fill: none; stroke-linecap: round; stroke-linejoin: round; stroke: rgb(76, 47, 4); stroke-width: 7;"/>
  <path d="M 342.776 170.168 C 343.742 170.168 364.029 171.082 364.029 169.219 C 365.317 169.219 364.995 168.903 364.995 170.168" style="fill: none; stroke-linecap: round; stroke-linejoin: round; stroke: rgb(76, 47, 4); stroke-width: 7;"/>
  <path d="M 390.883 214.555 C 384.783 214.555 379.117 224.255 380.646 229.324 C 382.075 234.062 390.759 235.802 390.759 235.802 L 391.946 236.182" style="fill: none; stroke-linecap: round; stroke-linejoin: round; stroke: rgb(76, 47, 4); stroke-width: 7;"/>
  <path d="M 398.042 226.654 C 398.042 226.654 399.064 233.607 399.064 234.914" style="fill: none; stroke-linecap: round; stroke-linejoin: round; stroke: rgb(76, 47, 4); stroke-width: 7;"/>
  <path d="M 399.882 217.07 C 399.882 217.523 398.655 218.442 398.655 218.442" style="fill: none; stroke-linecap: round; stroke-linejoin: round; stroke: rgb(76, 47, 4); stroke-width: 7;"/>
  <path d="M 414.18 219.694 C 399.636 223.365 411.132 237.826 420.435 232.889 C 424.459 230.754 427.079 223.102 421.955 220.383 C 419.45 219.053 415.113 220.05 415.113 220.05 L 414.18 219.694 Z" style="fill: none; stroke-linecap: round; stroke-linejoin: round; stroke: rgb(76, 47, 4); stroke-width: 7;"/>
  <path d="M 451.525 234.117 C 451.525 234.117 450.703 224.651 449.199 223.289 C 440.78 215.667 433.248 226.932 433.248 234.118 L 435.936 219.87 L 435.682 219.816" style="fill: none; stroke-linecap: round; stroke-linejoin: round; stroke: rgb(76, 47, 4); stroke-width: 7;"/>
  <path d="M 456.802 215.442 C 466.724 215.442 475.896 229.445 462.761 236.022 L 459.438 236.055" style="fill: none; stroke-linecap: round; stroke-linejoin: round; stroke: rgb(76, 47, 4); stroke-width: 7;"/>
  <path d="M 46.762 154.752 C 46.762 154.949 46.762 156.042 46.762 156.128 C 46.762 156.128 47.162 158.092 47.162 158.092" style="fill: none; stroke: rgb(76, 47, 4); stroke-width: 7; stroke-linecap: round;"/>
  <path d="M 410.129 145.026 C 419.845 145.026 429.457 145.162 439.013 145.162 C 439.467 145.162 443.76 145.026 443.76 145.026" style="fill: none; stroke-width: 10; stroke: rgb(76, 47, 4);"/>
  <path d="M 397.382 145.705 C 406.833 140.979 415.386 139.873 425.453 139.873 C 429.385 139.873 433.318 139.873 437.25 139.873 C 441.899 139.873 443.504 140.487 447.556 141.5 C 448.132 141.644 455.286 145.026 455.286 145.026 L 454.202 149.23" style="fill: none; stroke-width: 7; stroke-linecap: round; stroke-linejoin: round; stroke: url(#gradient-6);"/>
  <path d="M 415.689 147.332 C 406.073 142.592 418.247 135.146 421.384 132.008 C 424.579 128.814 417.938 124.55 415.553 124.55 C 414.745 124.55 413.696 124.028 413.112 123.736 C 412.582 123.471 410.807 123.531 410.807 122.787 C 410.807 117.297 417.126 119.043 420.028 116.142 C 421.536 114.634 418.265 112.209 418.265 112.209" style="fill: none; stroke: rgba(189, 181, 181, 0.670588);"/>
  <path d="M 425.86 147.603 C 425.724 147.603 421.88 141.814 421.384 140.822 C 420.615 139.283 426.725 133.5 428.029 133.5 C 428.029 132.015 430.582 129.543 428.843 127.804 C 427.566 126.527 425.42 125.738 424.368 124.685 C 424.103 124.421 424.481 122.244 424.503 122.244 C 424.931 122.244 425.092 120.729 425.588 120.481 C 427.393 119.579 428.285 114.786 430.606 114.786" style="fill: none; stroke: rgba(189, 181, 181, 0.670588);"/>
  <path d="M 432.369 147.874 C 432.369 147.874 437.722 142.108 436.301 140.687 C 435.761 140.147 435.47 139.449 434.945 138.924 C 434.479 138.458 427.875 136.366 430.199 134.042 C 430.968 133.273 432.361 131.345 432.911 130.245 C 433.421 129.226 435.268 126.719 436.437 126.719 C 436.437 125.356 440.725 124.584 439.42 121.973 C 438.626 120.385 439.155 118.046 437.657 116.549 C 437.48 116.371 435.759 115.193 435.759 115.193" style="fill: none; stroke: rgba(189, 181, 181, 0.670588);"/>
  <path d="M 438.471 144.484 C 438.471 144.348 439.461 141.365 439.149 141.365 C 438.941 141.365 437.335 138.839 437.793 138.381 C 438.012 138.163 442.132 135.534 442.132 135.534" style="fill: none; stroke: rgba(189, 181, 181, 0.670588);"/>
  <path d="M 420.571 144.619 C 420.3 144.619 416.202 142.556 416.096 142.45 C 415.584 141.938 416.315 139.821 415.96 139.466 C 415.219 138.725 413.583 137.831 413.112 136.89 C 412.916 136.498 411.621 131.601 411.621 131.601" style="fill: none; stroke: rgba(189, 181, 181, 0.670588);"/>
  <path d="M 428.707 143.535 C 428.707 142.878 430.74 142.869 428.436 140.551 C 425.737 137.836 423.405 136.292 423.282 135.94 C 422.197 132.844 425.316 130.923 425.316 130.923" style="fill: none; stroke: rgba(189, 181, 181, 0.670588);"/>
  <path d="M 396.683 156.213 C 397.314 169.067 397.711 181.84 398.341 194.669 C 398.38 195.465 399.58 205.885 399.58 205.885 C 399.58 205.885 410.068 209.104 410.225 209.082 C 416.454 208.188 417.97 209.096 424.321 209.096 C 427.629 209.096 432.155 208.241 435.022 208.5 C 440.335 208.98 445.487 209.052 449.98 206.755 C 450.433 206.523 458.493 204.741 458.493 204.741 C 458.47 204.282 457.919 197.45 457.925 197.209 C 458.011 194.148 457.655 182.682 456.991 179.64 C 454.438 167.947 454.553 164.096 455.232 152.322 C 455.093 149.498 455.09 144.769 455.09 144.769 C 442.448 144.769 445.128 147.846 434.222 149.682 C 429.619 150.457 421.165 151.215 412.661 149.847 C 412.559 149.831 395.785 147.286 395.785 147.286 C 396.015 147.286 396.475 156.671 396.475 156.671 L 396.683 156.213 Z" style="stroke-linecap: round; stroke-width: 7; stroke-linejoin: round; fill: url(#gradient-0); stroke: url(#gradient-3);" transform="matrix(0.998797, 0.049029, -0.049029, 0.998797, 9.149601, -20.740554)"/>
  <path d="M 457.053 150.231 C 457.053 150.231 462.361 150.231 462.553 150.231 C 466.591 150.231 473.638 151.612 476.991 154.127 C 479.554 156.049 483.49 159.184 484.554 162.377 C 484.765 163.009 484.61 167.877 485.013 167.877 C 485.013 170.165 487.245 176.705 485.929 179.336 C 484.711 181.772 483.867 188.725 483.867 191.482 C 483.867 196.655 474.853 200.42 470.574 200.42 C 469.161 200.42 457.511 202.025 457.511 202.025" style="fill: none; stroke-width: 7; stroke: url(#gradient-4);"/>
  <path d="M 414.496 159.185 C 414.496 159.185 413.265 162.542 414.301 168.36 C 414.903 171.743 414.976 177.532 415.714 181.786 C 417.081 186.697 416.089 190.927 414.503 194.099 C 413.691 195.723 408.23 196.752 406.643 195.487 C 401.77 191.602 403.239 190.267 402.229 187.197 C 401.479 184.917 401.649 181.454 401.649 181.454" style="stroke: black; fill: none; stroke-width: 6; stroke-linecap: round; stroke-linejoin: round;"/>
  <path d="M 447.133 161.346 C 446.931 161.346 443.625 160.137 443.297 159.978 C 441.113 158.917 436.806 158.652 435.223 160.958 C 434.234 162.399 431.252 163.983 432.026 169.39 C 432.655 173.782 435.45 175.068 435.45 175.068 C 435.45 175.387 438.765 176.315 439.26 176.636 C 441.085 177.816 444.931 176.982 448.949 181.534 C 448.949 181.534 450.475 187.9 448.546 191.572 C 446.811 194.876 444.098 196.592 444.098 196.592 C 441.243 197.541 438.491 197.638 435.373 196.605 C 432.053 195.505 430.58 191.92 430.58 191.92" style="stroke: black; fill: none; stroke-width: 6; stroke-linecap: round; stroke-linejoin: round;"/>
</svg>